<svg width="1083" height="962" viewBox="0 0 1083 962" fill="none" xmlns="http://www.w3.org/2000/svg">
<g filter="url(#filter0_dd)">
<path d="M807.052 576.78C805.998 578.078 804.604 579.099 802.985 579.702L450.667 711.134C448.172 712.065 445.4 711.909 443.025 710.705C440.65 709.501 438.886 707.359 438.162 704.796L335.483 341.68C334.05 336.614 336.997 331.347 342.062 329.914C347.128 328.482 352.397 331.427 353.828 336.494L453.693 689.655L781.638 567.316L648.034 446.296C644.131 442.761 643.836 436.721 647.369 432.83C650.902 428.926 656.931 428.63 660.834 432.162L806.052 563.702C808.518 565.938 809.641 569.296 809.016 572.565C808.714 574.138 808.03 575.576 807.052 576.78ZM591.186 381.234C591.076 381.369 590.964 381.501 590.847 381.63C587.312 385.533 581.284 385.831 577.38 382.297L294.264 125.849L327.888 244.761C329.323 249.826 326.377 255.094 321.309 256.527C316.243 257.959 310.974 255.014 309.543 249.947L266.883 99.0865C265.727 94.9966 267.412 90.6377 271.033 88.3903C274.644 86.1506 279.305 86.571 282.456 89.4265L590.179 368.164C593.954 371.583 594.356 377.33 591.186 381.234Z" fill="#F7F7F7"/>
<path d="M317.858 695.303C316.436 697.054 314.413 698.275 312.119 698.681C308.669 699.294 305.162 697.961 302.987 695.216L84.6458 419.684C83.0191 417.632 82.3084 415.001 82.6807 412.411C83.0515 409.819 84.4721 407.494 86.6112 405.982L170.916 346.332C175.214 343.292 181.163 344.311 184.205 348.608C187.245 352.906 186.226 358.852 181.929 361.896L105.84 415.731L306.955 669.529L370.631 477.038C372.288 472.036 380.333 448.333 383.666 471C387.666 467.666 390.385 478.027 388.733 483.025L319.507 692.29C319.139 693.406 318.574 694.421 317.858 695.303ZM417.025 395.536C414.6 398.523 410.496 399.857 406.628 398.578C401.63 396.923 398.918 391.531 400.571 386.535L478.024 152.396L259.745 306.838C255.447 309.878 249.498 308.859 246.457 304.563C243.416 300.264 244.438 294.315 248.732 291.274L490.67 120.093C494.032 117.716 498.539 117.763 501.847 120.214C505.155 122.664 506.518 126.961 505.224 130.869L418.668 392.523C418.299 393.65 417.734 394.663 417.025 395.536Z" fill="#F7F7F7"/>
<path d="M1002.13 366.786C985.56 387.189 955.482 390.309 935.079 373.742C914.676 357.175 911.556 327.098 928.123 306.695C944.69 286.292 974.767 283.171 995.17 299.738C1015.57 316.305 1018.69 346.383 1002.13 366.786ZM942.924 318.713C932.983 330.955 934.856 349.001 947.097 358.942C959.339 368.882 977.386 367.009 987.326 354.768C997.266 342.526 995.394 324.479 983.152 314.539C970.91 304.599 952.864 306.471 942.924 318.713Z" fill="#F7F7F7"/>
<path d="M151.26 265.312C134.692 285.715 104.615 288.836 84.212 272.269C63.8091 255.702 60.6884 225.624 77.2555 205.221C93.8227 184.818 123.9 181.698 144.303 198.265C164.706 214.832 167.827 244.91 151.26 265.312ZM92.0563 217.24C82.1161 229.481 83.9885 247.528 96.2302 257.468C108.472 267.408 126.518 265.536 136.459 253.294C146.399 241.053 144.527 223.006 132.285 213.066C120.043 203.125 101.997 204.998 92.0563 217.24Z" fill="#F7F7F7"/>
<path d="M734.83 272.539C733.244 274.493 730.904 275.739 728.399 276.011C725.905 276.27 723.373 275.516 721.421 273.931C719.467 272.344 718.193 270.008 717.935 267.514C717.687 265.007 718.454 262.462 720.03 260.521C721.604 258.582 723.937 257.309 726.431 257.05C728.936 256.778 731.485 257.544 733.439 259.13C735.378 260.704 736.65 263.039 736.895 265.547C737.154 268.041 736.405 270.601 734.83 272.539Z" fill="#FFC700"/>
<path d="M698.776 316.942C697.189 318.896 694.849 320.141 692.344 320.413C689.85 320.672 687.304 319.906 685.366 318.333C683.413 316.747 682.139 314.411 681.88 311.917C681.632 309.409 682.389 306.877 683.975 304.924C685.549 302.985 687.883 301.711 690.389 301.438C692.883 301.179 695.431 301.946 697.384 303.532C699.323 305.107 700.596 307.441 700.853 309.934C701.1 312.443 700.361 314.99 698.776 316.942Z" fill="#FFC700"/>
<path d="M662.721 361.344C661.145 363.285 658.794 364.544 656.289 364.816C653.795 365.075 651.249 364.309 649.312 362.736C647.358 361.149 646.084 358.813 645.825 356.319C645.577 353.812 646.334 351.28 647.92 349.326C649.505 347.374 651.828 346.114 654.322 345.855C656.827 345.583 659.376 346.348 661.33 347.935C663.269 349.509 664.541 351.844 664.786 354.352C665.045 356.846 664.295 359.405 662.721 361.344Z" fill="#FFC700"/>
<path d="M618.319 325.289C616.732 327.243 614.392 328.489 611.887 328.761C609.393 329.02 606.847 328.254 604.909 326.681C602.955 325.094 601.682 322.758 601.423 320.264C601.164 317.77 601.931 315.225 603.518 313.271C605.103 311.319 607.436 310.046 609.92 309.8C612.425 309.528 614.974 310.294 616.927 311.88C618.866 313.454 620.138 315.789 620.384 318.297C620.643 320.791 619.904 323.337 618.319 325.289Z" fill="#FFC700"/>
<path d="M573.916 289.235C572.33 291.188 569.979 292.448 567.485 292.706C564.991 292.965 562.444 292.199 560.507 290.626C558.553 289.04 557.279 286.704 557.021 284.21C556.773 281.702 557.54 279.157 559.116 277.217C560.69 275.278 563.023 274.004 565.517 273.745C568.022 273.473 570.571 274.239 572.525 275.825C574.464 277.4 575.736 279.734 575.982 282.242C576.251 284.723 575.502 287.283 573.916 289.235Z" fill="#FFC700"/>
<path d="M517.668 857.551L493.632 887.152L523.233 911.189L547.27 881.587L517.668 857.551Z" fill="#F7F7F7"/>
<path d="M553.723 813.148L529.687 842.75L559.288 866.786L583.325 837.185L553.723 813.148Z" fill="#F7F7F7"/>
<path d="M589.778 768.746L565.741 798.347L595.343 822.384L619.379 792.782L589.778 768.746Z" fill="#F7F7F7"/>
<path d="M625.832 724.343L601.796 753.945L631.398 777.981L655.434 748.38L625.832 724.343Z" fill="#F7F7F7"/>
</g>
<defs>
<filter id="filter0_dd" x="0.633789" y="0.338135" width="1081.54" height="960.851" filterUnits="userSpaceOnUse" color-interpolation-filters="sRGB">
<feFlood flood-opacity="0" result="BackgroundImageFix"/>
<feColorMatrix in="SourceAlpha" type="matrix" values="0 0 0 0 0 0 0 0 0 0 0 0 0 0 0 0 0 0 127 0"/>
<feOffset dx="10" dy="10"/>
<feGaussianBlur stdDeviation="20"/>
<feColorMatrix type="matrix" values="0 0 0 0 0.129412 0 0 0 0 0.129412 0 0 0 0 0.129412 0 0 0 0.3 0"/>
<feBlend mode="normal" in2="BackgroundImageFix" result="effect1_dropShadow"/>
<feColorMatrix in="SourceAlpha" type="matrix" values="0 0 0 0 0 0 0 0 0 0 0 0 0 0 0 0 0 0 127 0"/>
<feOffset dx="-10" dy="-10"/>
<feGaussianBlur stdDeviation="10"/>
<feColorMatrix type="matrix" values="0 0 0 0 1 0 0 0 0 1 0 0 0 0 1 0 0 0 0.3 0"/>
<feBlend mode="normal" in2="effect1_dropShadow" result="effect2_dropShadow"/>
<feBlend mode="normal" in="SourceGraphic" in2="effect2_dropShadow" result="shape"/>
</filter>
</defs>
</svg>
